<?xml version="1.0" encoding="utf-8"?>
<!-- Generator: Adobe Illustrator 26.0.0, SVG Export Plug-In . SVG Version: 6.00 Build 0)  -->
<svg version="1.1" xmlns="http://www.w3.org/2000/svg" xmlns:xlink="http://www.w3.org/1999/xlink" x="0px" y="0px"
	 viewBox="0 0 1080 1080" style="enable-background:new 0 0 1080 1080;" xml:space="preserve">
<style type="text/css">
	.st0{fill:#FFFFFF;}
	.st1{fill:#1A5F75;}
</style>
<g id="Capa_1">
	<g>
		<rect x="0.5" y="0.5" width="1079" height="1079"/>
		<path d="M1079,1v1078H1V1H1079 M1080,0H0v1080h1080V0L1080,0z"/>
	</g>
</g>
<g id="Capa_2">
	<g>
		<rect x="260" y="106" class="st0" width="80" height="660"/>
		<path class="st1" d="M335,111v650h-70V111H335 M345,101h-90v670h90V101L345,101z"/>
	</g>
	<g>
		<rect x="593" y="106" class="st0" width="80" height="660"/>
		<path class="st1" d="M668,111v650h-70V111H668 M678,101h-90v670h90V101L678,101z"/>
	</g>
	<g>
		<rect x="425" y="314" class="st0" width="80" height="660"/>
		<path class="st1" d="M500,319v650h-70V319H500 M510,309h-90v670h90V309L510,309z"/>
	</g>
	<g>
		<rect x="761" y="314" class="st0" width="79" height="660"/>
		<path class="st1" d="M835,319v650h-69V319H835 M845,309h-89v670h89V309L845,309z"/>
	</g>
</g>
<g id="Capa_3">
	<g>
		<rect x="202" y="409" class="st0" width="764" height="80"/>
		<path class="st1" d="M961,414v70H207v-70H961 M971,404H197v90h774V404L971,404z"/>
	</g>
	<g>
		<rect x="97" y="580" class="st0" width="764" height="80"/>
		<path class="st1" d="M856,585v70H102v-70H856 M866,575H92v90h774V575L866,575z"/>
	</g>
</g>
</svg>
